<?xml version="1.0" encoding="UTF-8"?>
<svg id="Layer_2" data-name="Layer 2" xmlns="http://www.w3.org/2000/svg" viewBox="0 0 203.19 34.87">
  <defs>
    <linearGradient id="metalPurple" x1="0%" y1="0%" x2="100%" y2="100%">
      <stop offset="0%" style="stop-color:#000000;stop-opacity:1" />
      <stop offset="25%" style="stop-color:#1F1F1F;stop-opacity:1" />
      <stop offset="75%" style="stop-color:#A855A7;stop-opacity:1" />
      <stop offset="100%" style="stop-color:#581C65;stop-opacity:1" />
    </linearGradient>
    <linearGradient id="metalGold" x1="0%" y1="0%" x2="100%" y2="100%">
      <stop offset="0%" style="stop-color:#000000;stop-opacity:1" />
      <stop offset="25%" style="stop-color:#1C1917;stop-opacity:1" />
      <stop offset="75%" style="stop-color:#F59E0B;stop-opacity:1" />
      <stop offset="100%" style="stop-color:#92400E;stop-opacity:1" />
    </linearGradient>
    <linearGradient id="metalBlue" x1="0%" y1="0%" x2="100%" y2="100%">
      <stop offset="0%" style="stop-color:#000000;stop-opacity:1" />
      <stop offset="25%" style="stop-color:#0F172A;stop-opacity:1" />
      <stop offset="75%" style="stop-color:#3B82F6;stop-opacity:1" />
      <stop offset="100%" style="stop-color:#1E3A8A;stop-opacity:1" />
    </linearGradient>
    <linearGradient id="metalPink" x1="0%" y1="0%" x2="100%" y2="100%">
      <stop offset="0%" style="stop-color:#000000;stop-opacity:1" />
      <stop offset="25%" style="stop-color:#1F1B1B;stop-opacity:1" />
      <stop offset="75%" style="stop-color:#EC4899;stop-opacity:1" />
      <stop offset="100%" style="stop-color:#9D174D;stop-opacity:1" />
    </linearGradient>
    <linearGradient id="metalAmber" x1="0%" y1="0%" x2="100%" y2="100%">
      <stop offset="0%" style="stop-color:#000000;stop-opacity:1" />
      <stop offset="25%" style="stop-color:#1C1917;stop-opacity:1" />
      <stop offset="75%" style="stop-color:#D97706;stop-opacity:1" />
      <stop offset="100%" style="stop-color:#78350F;stop-opacity:1" />
    </linearGradient>
    <linearGradient id="metalViolet" x1="0%" y1="0%" x2="100%" y2="100%">
      <stop offset="0%" style="stop-color:#000000;stop-opacity:1" />
      <stop offset="25%" style="stop-color:#1E1B3A;stop-opacity:1" />
      <stop offset="75%" style="stop-color:#7C3AED;stop-opacity:1" />
      <stop offset="100%" style="stop-color:#4C1D95;stop-opacity:1" />
    </linearGradient>
    <linearGradient id="metalEmerald" x1="0%" y1="0%" x2="100%" y2="100%">
      <stop offset="0%" style="stop-color:#000000;stop-opacity:1" />
      <stop offset="25%" style="stop-color:#0F1F1C;stop-opacity:1" />
      <stop offset="75%" style="stop-color:#10B981;stop-opacity:1" />
      <stop offset="100%" style="stop-color:#064E3B;stop-opacity:1" />
    </linearGradient>
    <linearGradient id="metalRed" x1="0%" y1="0%" x2="100%" y2="100%">
      <stop offset="0%" style="stop-color:#000000;stop-opacity:1" />
      <stop offset="25%" style="stop-color:#1F1918;stop-opacity:1" />
      <stop offset="75%" style="stop-color:#EF4444;stop-opacity:1" />
      <stop offset="100%" style="stop-color:#991B1B;stop-opacity:1" />
    </linearGradient>
  </defs>
  <g id="Layer_1-2" data-name="Layer 1">
    <g>
      <path fill="url(#metalPurple)" d="M1.34,25.47l-1.34,4.17v.1h14.53l1.37-4.27H1.34ZM26.14.55v14.46h-15.61V.55h-4.82v34.01h4.82v-14.44h15.61v14.44h4.82V.55h-4.82Z"/>
      <path fill="url(#metalGold)" d="M45.24,8.12h-3.66v5.75h3.66c.88,0,1.59.72,1.59,1.61v.57h-5.25c-5.1,0-9.25,4.14-9.25,9.24s4.16,9.24,9.25,9.24c1.02,0,3.14-.19,5.25-1.58v1.58h5.75V15.47c0-4.06-3.3-7.36-7.34-7.36ZM41.57,28.77c-1.93,0-3.49-1.56-3.49-3.49s1.56-3.49,3.49-3.49h5.14c-.45,2.98-1.69,6.97-5.14,6.97Z"/>
      <path fill="url(#metalBlue)" d="M74.64,31.38c-1.35,1.46-3.92,3.19-8.46,3.19-4.08,0-6.54-1.6-7.86-2.95-1.74-1.76-2.72-4.25-2.69-6.81l5.36.07c0,.54.1,1.91,1.15,2.97.89.9,2.25,1.36,4.05,1.36,2.78,0,4.07-.89,4.67-1.64.36-.46.21-1.13-.31-1.4-1.29-.66-3.62-1.33-5.04-1.74l-.99-.28c-4.62-1.35-8.89-3.25-8.89-7.98,0-1.72.81-3.52,2.25-4.96,1.96-1.95,4.85-3.02,8.15-3.02h.04c3.56,0,6.31,1.06,8.19,3.15,2.19,2.44,2.38,5.44,2.35,6.65h0v.61h-5.37v-.62s.13-1.86-1-3.09c-.81-.89-2.22-1.35-4.18-1.35h-.03c-3.78,0-4.66,2.06-4.58,2.62.08.56.06,1.49,4.57,2.83l.96.28c4.41,1.27,9.4,2.69,9.72,6.96.1,1.31-.39,3.36-2.06,5.14Z"/>
      <path fill="url(#metalPink)" d="M104.85,21.33v13.19h-5.75v-13.19c0-4.1-3-7.44-6.69-7.44s-6.69,3.34-6.69,7.44v13.23h-5.75v-13.23c0-.18.02-.36.03-.54V0h5.7v10.24c1.94-1.33,4.24-2.1,6.72-2.1,6.86,0,12.44,5.92,12.44,13.19Z"/>
      <path fill="url(#metalAmber)" d="M132.65,21.67c0,7.28-5.58,13.2-12.44,13.2-2.21,0-4.3-.62-6.12-1.71v.94h-5.69V0h5.69v10.17c1.81-1.08,3.9-1.7,6.12-1.7,6.86,0,12.44,5.91,12.44,13.19ZM126.9,21.66c0-2.37-.95-4.47-2.42-5.83-.04-.03-.08-.07-.12-.1-.11-.1-.22-.2-.34-.28-.15-.11-.3-.22-.45-.32-.01,0-.02-.01-.03-.02-.72-.46-1.52-.76-2.37-.85-.01,0-.03,0-.04,0-.15-.01-.31-.02-.46-.03-.06,0-.12-.01-.17-.01-.08,0-.16.01-.23.01-.02,0-.04,0-.05,0-.01,0-.02,0-.04,0-.49.03-.97.12-1.43.27-2.18.66-3.43,2.36-4.07,4.07-.24.61-.41,1.26-.5,1.94,0,.07-.02.13-.02.19-.01.1-.02.2-.03.3-.02.21-.03.41-.03.59,0,0,0,.02,0,.03s0,.02,0,.03c0,2.5,1.06,4.71,2.68,6.06.81.73,1.82,1.23,3.05,1.35.01,0,.02,0,.03,0,.12.01.23.03.35.03.06,0,.11,0,.16,0,.04,0,.08,0,.13,0,.13,0,.26-.01.39-.02h0c3.34-.24,5.99-3.46,6.01-7.4,0,0,0-.02,0-.02t0,0Z"/>
      <path fill="url(#metalViolet)" d="M149.33,2.79l-.05,16.87h-4.27s.05-16.88.05-16.88h4.27ZM147.79,34.87c-2.36,0-4.51-.59-6.44-1.74-1.93-1.15-3.47-2.7-4.6-4.63-1.14-1.93-1.72-4.09-1.74-6.46v-.02c0-3.46,1.27-6.48,3.79-9.08,2.63-2.5,5.65-3.74,9.07-3.73,2.36,0,4.51.59,6.44,1.75,1.93,1.16,3.47,2.71,4.63,4.65,1.15,1.94,1.72,4.09,1.72,6.45s-.59,4.52-1.75,6.47c-1.16,1.95-2.71,3.5-4.65,4.64-1.94,1.14-4.09,1.71-6.45,1.71ZM142.15,27.8c1.55,1.55,3.44,2.34,5.66,2.34s4.14-.78,5.72-2.36c1.58-1.58,2.37-3.49,2.38-5.72s-.78-4.14-2.35-5.73c-1.57-1.59-3.47-2.38-5.71-2.39s-4.06.78-5.72,2.35c-1.58,1.65-2.37,3.55-2.38,5.71.04,2.31.84,4.25,2.39,5.8Z"/>
      <path fill="url(#metalEmerald)" d="M177.48,2.56l.22,16.87-4.27.06-.22-16.87,4.27-.06ZM176.45,34.66c-2.36.03-4.52-.52-6.47-1.64-1.95-1.12-3.51-2.64-4.67-4.56-1.17-1.91-1.78-4.06-1.84-6.44v-.02c-.05-3.45,1.17-6.50,3.64-9.13,2.59-2.54,5.59-3.83,9.01-3.88,2.36-.03,4.52.52,6.47,1.65,1.95,1.13,3.52,2.66,4.70,4.58,1.18,1.92,1.79,4.06,1.82,6.42s-.52,4.53-1.65,6.49c-1.13,1.97-2.66,3.54-4.58,4.71-1.92,1.17-4.06,1.78-6.43,1.81ZM170.7,27.68c1.58,1.53,3.48,2.28,5.69,2.25s4.13-.85,5.68-2.45c1.55-1.6,2.32-3.52,2.29-5.75s-.84-4.13-2.44-5.69c-1.6-1.56-3.51-2.33-5.74-2.3s-4.05.84-5.68,2.44c-1.55,1.67-2.32,3.59-2.29,5.74.08,2.31.91,4.23,2.49,5.77Z"/>
      <path fill="url(#metalRed)" d="M203.19,28.84v5.75h-2.29c-4.09,0-7.41-3.33-7.41-7.41V2.63h5.75v6.97h3.78v5.75h-3.78v11.83c0,.92.75,1.66,1.66,1.66h2.29Z"/>
    </g>
  </g>
</svg>